<svg width="108" height="21" viewBox="0 0 108 21" fill="none" xmlns="http://www.w3.org/2000/svg">
<path d="M8.88864 9.86949C8.88864 8.05679 7.52524 6.78278 5.85049 6.78278C4.17574 6.78278 2.81234 8.07826 2.81234 9.86949C2.81234 11.6393 4.17574 12.9563 5.85049 12.9563C7.52693 12.9546 8.88864 11.6822 8.88864 9.86949ZM8.91258 15.2647V13.8618C8.08632 14.8334 6.85636 15.4366 5.38348 15.4366C2.32309 15.4366 0 13.062 0 9.86949C0 6.69684 2.41204 4.28098 5.4519 4.28098C6.88205 4.28098 8.08807 4.88577 8.91427 5.83427V4.47431H11.6616V15.2647H8.91258Z" fill="#1D2D35" fill-opacity="0.5"/>
<path d="M25.0064 12.8687C24.045 12.8687 23.7782 12.5233 23.7782 11.6178V6.82734H25.5436V4.4743H23.7782V1.84198H20.9624V4.4743H17.3358V3.81829C17.3358 2.9111 17.6934 2.56574 18.677 2.56574H19.2945V0.472108H17.9397C15.6166 0.472108 14.5217 1.20579 14.5217 3.44979V4.47265H12.9582V6.82572H14.5217V15.263H17.3375V6.82572H20.9641V12.1135C20.9641 14.3145 21.8349 15.2647 24.1135 15.2647H25.5658V12.8687H25.0064Z" fill="#1D2D35" fill-opacity="0.5"/>
<path d="M35.1047 8.89785C34.9045 7.49489 33.719 6.6538 32.3351 6.6538C30.9494 6.6538 29.8101 7.47342 29.521 8.89785H35.1047ZM29.4971 10.5817C29.6989 12.1779 30.8827 13.0851 32.3796 13.0851C33.5633 13.0851 34.4803 12.5447 35.0157 11.6822H37.8981C37.2276 13.9692 35.1047 15.4365 32.3129 15.4365C28.9394 15.4365 26.5718 13.1495 26.5718 9.89093C26.5718 6.63233 29.0746 4.27928 32.3812 4.27928C35.7102 4.27928 38.1223 6.65386 38.1223 9.89093C38.1223 10.1289 38.1 10.3652 38.0555 10.5817H29.4971Z" fill="#1D2D35" fill-opacity="0.5"/>
<path d="M56.0244 9.86949C56.0244 8.1212 54.661 6.78278 52.9862 6.78278C51.3115 6.78278 49.9481 8.07826 49.9481 9.86949C49.9481 11.6393 51.3115 12.9563 52.9862 12.9563C54.661 12.9546 56.0244 11.6178 56.0244 9.86949ZM47.1768 4.47431H49.9241V5.87723C50.7504 4.88411 51.9786 4.28098 53.4532 4.28098C56.4692 4.28098 58.8368 6.677 58.8368 9.84802C58.8368 13.0207 56.4247 15.4382 53.3866 15.4382C51.9787 15.4382 50.8171 14.8979 50.0131 13.9924V19.7048H47.1768V4.47431Z" fill="#1D2D35" fill-opacity="0.5"/>
<path d="M68.7398 9.86949C68.7398 8.05679 67.3781 6.78278 65.7015 6.78278C64.0268 6.78278 62.6634 8.07826 62.6634 9.86949C62.6634 11.6393 64.0268 12.9563 65.7015 12.9563C67.3781 12.9546 68.7398 11.6822 68.7398 9.86949ZM68.7639 15.2647V13.8618C67.9376 14.8334 66.7073 15.4366 65.2344 15.4366C62.1742 15.4366 59.8512 13.062 59.8512 9.86949C59.8512 6.69684 62.2632 4.28098 65.3014 4.28098C66.7314 4.28098 67.9376 4.88577 68.7639 5.83427V4.47431H71.5114V15.2647H68.7639Z" fill="#1D2D35" fill-opacity="0.5"/>
<path d="M42.2244 5.53187C42.2244 5.53187 42.9241 4.28098 44.6364 4.28098C45.3686 4.28098 45.8425 4.52388 45.8425 4.52388V7.27685C45.8425 7.27685 44.8092 6.66047 43.8598 6.78441C42.9104 6.90835 42.3099 7.75107 42.3134 8.87804V15.2664H39.4771V4.47596H42.2244V5.53187Z" fill="#1D2D35" fill-opacity="0.5"/>
<path d="M84.3425 4.47429L77.4058 19.6701H74.4807L77.2041 13.7957L72.5992 4.47429H75.9146L78.6088 10.7023L81.3732 4.47429H84.3425Z" fill="#1D2D35" fill-opacity="0.5"/>
<path d="M106.486 4.22974L99.6091 0.39609C97.5902 -0.729214 95.0672 0.677007 95.0672 2.92927V3.32255C95.0672 3.67783 95.2637 4.00666 95.5818 4.18347L96.8804 4.90723C97.2617 5.1204 97.7373 4.85436 97.7373 4.42969V3.45144C97.7373 2.96232 98.2851 2.65662 98.7229 2.90118L104.679 6.22257C105.118 6.46713 105.118 7.07854 104.679 7.32147L98.7229 10.6429C98.2851 10.8874 97.7373 10.5817 97.7373 10.0926V9.57203C97.7373 7.31978 95.2142 5.91192 93.1941 7.03885L86.3173 10.8725C84.2985 11.9979 84.2985 14.8136 86.3173 15.9389L93.1941 19.7725C95.2123 20.8978 97.7373 19.4916 97.7373 17.2394V16.8461C97.7373 16.4908 97.5408 16.1636 97.2227 15.9851L95.924 15.2597C95.5428 15.0466 95.0672 15.3126 95.0672 15.7373V16.7156C95.0672 17.2047 94.52 17.5103 94.0815 17.2658L88.1253 13.9444C87.6874 13.6998 87.6874 13.0885 88.1253 12.8439L94.0815 9.52245C94.52 9.27789 95.0672 9.58361 95.0672 10.0727V10.5933C95.0672 12.8455 97.5902 14.2534 99.6091 13.1265L106.486 9.29279C108.505 8.17076 108.505 5.35504 106.486 4.22974Z" fill="#1D2D35" fill-opacity="0.5"/>
</svg>
