<svg width="99" height="19" viewBox="0 0 99 19" fill="none" xmlns="http://www.w3.org/2000/svg">
<path fill-rule="evenodd" clip-rule="evenodd" d="M1.70136 15.9413C-0.567148 13.6921 -0.567112 10.0453 1.70142 7.79606L7.86286 1.68696C9.78059 -0.214455 12.7056 -0.508521 14.9348 0.804764C15.6244 1.21097 15.6183 2.14281 15.0512 2.70513C14.4841 3.26745 13.5582 3.21906 12.7885 2.99581C11.8027 2.70995 10.6941 2.95245 9.9167 3.7233L3.75522 9.83236C2.62095 10.957 2.62094 12.7804 3.75519 13.905C4.88946 15.0297 6.72852 15.0297 7.86279 13.905L20.1856 1.68704C22.4542 -0.562226 26.1321 -0.562236 28.4007 1.68701L34.5622 7.79606C36.8308 10.0452 36.8308 13.6921 34.5622 15.9413C32.2937 18.1906 28.6157 18.1906 26.3471 15.9413L24.2933 13.905L21.726 16.4505C19.8083 18.3519 16.8833 18.6459 14.654 17.3326C13.9645 16.9264 13.9706 15.9946 14.5377 15.4323C15.1048 14.8699 16.0306 14.9183 16.8004 15.1416C17.7862 15.4274 18.8948 15.1849 19.6722 14.4141L22.3129 11.796C23.4066 10.7115 25.1799 10.7115 26.2738 11.796L28.4009 13.905C29.5352 15.0296 31.3741 15.0296 32.5084 13.905C33.6427 12.7804 33.6427 10.957 32.5084 9.83236L26.3469 3.72337C25.2126 2.59874 23.3737 2.59875 22.2394 3.72338L9.91662 15.9414C7.64801 18.1907 3.96991 18.1907 1.70136 15.9413Z" fill="#1D2D35" fill-opacity="0.5"/>
<path d="M59.4662 3.26443C58.0388 3.26443 56.9573 3.77557 56.2436 4.79786C55.6165 3.77557 54.6215 3.26443 53.3023 3.26443C51.9397 3.26443 50.9448 3.73298 50.2959 4.69137V3.5626H47.5059V14.2114H50.2959V8.22676C50.2959 6.67206 51.0962 5.82016 52.329 5.82016C53.4753 5.82016 54.1457 6.56557 54.1457 7.84346V14.2114H56.9357V8.22676C56.9357 6.67206 57.6711 5.82016 58.9472 5.82016C60.0934 5.82016 60.7639 6.56557 60.7639 7.84346V14.2114H63.5539V7.65173C63.5539 4.98955 61.9534 3.26443 59.4662 3.26443Z" fill="#1D2D35" fill-opacity="0.5"/>
<path d="M73.9258 4.81916C73.0823 3.77557 71.9144 3.26443 70.4005 3.26443C68.9514 3.26443 67.7186 3.81817 66.6805 4.90435C65.664 5.99053 65.1448 7.311 65.1448 8.88704C65.1448 10.463 65.664 11.8048 66.6805 12.891C67.7186 13.9772 68.9514 14.5096 70.4005 14.5096C71.9144 14.5096 73.0823 13.9985 73.9258 12.9549V14.2114H76.716V3.5626H73.9258V4.81916ZM68.7784 11.0594C68.216 10.4843 67.9348 9.7602 67.9348 8.88704C67.9348 8.0138 68.216 7.28969 68.7784 6.73596C69.3407 6.16092 70.0544 5.88404 70.9195 5.88404C71.7846 5.88404 72.4984 6.16092 73.0607 6.73596C73.6446 7.28969 73.9258 8.0138 73.9258 8.88704C73.9258 9.7602 73.6446 10.4843 73.0607 11.0594C72.4984 11.6132 71.7846 11.89 70.9195 11.89C70.0544 11.89 69.3407 11.6132 68.7784 11.0594Z" fill="#1D2D35" fill-opacity="0.5"/>
<path d="M87.0104 5.39416V3.56256H78.8999V6.13958H83.2468L78.683 12.3798V14.2114H87.2265V11.6344H82.4246L87.0104 5.39416Z" fill="#1D2D35" fill-opacity="0.5"/>
<path d="M98.8919 10.0158C98.9569 9.61117 99 9.24911 99 8.88704C99 7.28969 98.4816 5.96924 97.4432 4.88306C96.4268 3.79687 95.1073 3.26443 93.5286 3.26443C91.8629 3.26443 90.4792 3.79687 89.4189 4.88306C88.3594 5.94794 87.8183 7.28969 87.8183 8.88704C87.8183 10.5057 88.3594 11.8474 89.4408 12.9123C90.5223 13.9771 91.9498 14.5096 93.7447 14.5096C95.8207 14.5096 97.4001 13.7429 98.4597 12.2307L96.2106 10.9529C95.6695 11.6557 94.848 12.0178 93.7878 12.0178C92.1229 12.0178 91.1065 11.3576 90.7384 10.0158H98.8919ZM90.6953 7.88601C91.0196 6.52298 92.036 5.73496 93.5286 5.73496C94.8042 5.73496 95.8857 6.43779 96.2106 7.88601H90.6953Z" fill="#1D2D35" fill-opacity="0.5"/>
</svg>
