<svg width="115" height="26" viewBox="0 0 115 26" fill="none" xmlns="http://www.w3.org/2000/svg">
<path d="M33.7388 6.97481H38.5648C41.238 6.97481 42.6259 8.07091 42.6259 10.1291V10.2316C42.664 10.8347 42.4843 11.4315 42.1197 11.9133C41.755 12.3952 41.2295 12.7303 40.6387 12.8575C41.3462 12.9197 42.0006 13.2586 42.4597 13.8004C42.9189 14.3423 43.1458 15.0434 43.0911 15.7515V15.8225C43.0911 18.0699 41.6165 19.2527 38.7856 19.2527H33.7388V6.97481ZM38.1153 12.0137C39.4559 12.0137 39.9842 11.5327 39.9842 10.4366V10.3656C39.9842 9.34049 39.4007 8.87524 38.0995 8.87524H36.4515V12.0295L38.1153 12.0137ZM38.3519 17.3207C39.724 17.3207 40.3469 16.6978 40.3469 15.5859V15.5149C40.3469 14.3794 39.724 13.8037 38.2178 13.8037H36.4515V17.3286L38.3519 17.3207Z" fill="#8C9498"/>
<path d="M43.8167 16.753C43.8167 14.6554 45.7329 13.8668 48.485 13.8668H49.4944V13.512C49.4944 12.4474 49.171 11.8639 48.0355 11.8639C47.8517 11.8421 47.6654 11.8581 47.488 11.911C47.3106 11.9639 47.1459 12.0525 47.0041 12.1715C46.8623 12.2904 46.7463 12.4371 46.6633 12.6026C46.5803 12.768 46.532 12.9487 46.5215 13.1335H44.1558C44.3135 11.0044 45.9931 10.0581 48.1932 10.0581C50.3933 10.0581 51.9468 10.9492 51.9468 13.3858V19.2369H49.5259V18.1566C49.2221 18.5847 48.8125 18.9267 48.337 19.1492C47.8616 19.3717 47.3366 19.4671 46.8132 19.4262C45.1888 19.4262 43.8167 18.6376 43.8167 16.753ZM49.4944 16.0985V15.3099H48.5323C47.0892 15.3099 46.2534 15.6253 46.2534 16.5795C46.2534 17.234 46.6477 17.6677 47.5545 17.6677C48.6506 17.6992 49.4944 17.0921 49.4944 16.0985Z" fill="#8C9498"/>
<path d="M52.9954 16.4218H55.3138C55.4163 17.2103 55.8106 17.6992 56.8909 17.6992C57.8529 17.6992 58.3024 17.3365 58.3024 16.7135C58.3024 16.0906 57.7662 15.8382 56.4808 15.6569C54.1152 15.2941 53.1689 14.6081 53.1689 12.8575C53.1689 11.1069 54.8879 10.0581 56.7174 10.0581C58.7125 10.0581 60.2028 10.7836 60.4236 12.8417H58.1447C58.0106 12.1005 57.5927 11.7614 56.7411 11.7614C55.8894 11.7614 55.4715 12.1399 55.4715 12.684C55.4715 13.2281 55.8973 13.4726 57.1984 13.6618C59.4458 13.9851 60.6839 14.5529 60.6839 16.477C60.6839 18.4011 59.2802 19.4262 56.9067 19.4262C54.5331 19.4262 53.0821 18.3616 52.9954 16.4218Z" fill="#8C9498"/>
<path d="M61.3226 14.8604V14.7264C61.2927 14.1101 61.3911 13.4943 61.6117 12.9181C61.8322 12.3419 62.17 11.8177 62.6036 11.3788C63.0373 10.94 63.5574 10.596 64.131 10.3686C64.7046 10.1413 65.3191 10.0355 65.9357 10.0581C68.2541 10.0581 70.3122 11.4144 70.3122 14.6238V15.3099H63.8697C63.9327 16.8003 64.745 17.6756 66.0934 17.6756C67.2447 17.6756 67.8125 17.1788 67.9702 16.4218H70.3358C70.0441 18.3616 68.4985 19.4419 66.0461 19.4419C63.294 19.4262 61.3226 17.7308 61.3226 14.8604ZM67.8913 13.7801C67.8125 12.4238 67.1185 11.8087 65.9357 11.8087C65.4032 11.8062 64.8904 12.0102 64.5052 12.3778C64.1199 12.7454 63.8921 13.248 63.8697 13.7801H67.8913Z" fill="#8C9498"/>
<path d="M70.9667 14.8603V14.7263C70.9367 14.1086 71.0355 13.4915 71.257 12.9142C71.4784 12.3368 71.8177 11.8119 72.2531 11.3728C72.6885 10.9337 73.2105 10.59 73.786 10.3636C74.3614 10.1373 74.9777 10.0332 75.5956 10.058C77.6774 10.058 79.5936 10.9649 79.8222 13.5434H77.4566C77.4408 13.3221 77.3808 13.1062 77.28 12.9085C77.1792 12.7109 77.0396 12.5355 76.8697 12.3928C76.6998 12.2501 76.503 12.143 76.2908 12.0779C76.0787 12.0127 75.8557 11.9909 75.635 12.0136C74.3496 12.0136 73.4901 12.9757 73.4901 14.6947V14.8288C73.4901 16.6346 74.2787 17.5572 75.6902 17.5572C75.9303 17.571 76.1709 17.5369 76.3977 17.4569C76.6246 17.3768 76.8332 17.2525 77.0115 17.091C77.1899 16.9296 77.3343 16.7343 77.4364 16.5165C77.5386 16.2987 77.5963 16.0627 77.6064 15.8224H79.8538C79.7197 17.9515 78.1742 19.4261 75.564 19.4261C72.9539 19.4261 70.9667 17.7938 70.9667 14.8603Z" fill="#8C9498"/>
<path d="M80.4296 16.753C80.4296 14.6554 82.3458 13.8668 85.0899 13.8668H86.1072V13.512C86.1072 12.4474 85.776 11.8639 84.6483 11.8639C84.4633 11.8397 84.2753 11.854 84.0961 11.9058C83.9168 11.9577 83.7502 12.0459 83.6066 12.1651C83.463 12.2842 83.3456 12.4317 83.2616 12.5984C83.1776 12.765 83.1289 12.9472 83.1186 13.1335H80.7529C80.9106 11.0044 82.5902 10.0581 84.7824 10.0581C86.9746 10.0581 88.5438 10.9492 88.5438 13.3858V19.2369H86.123V18.1566C85.8191 18.5847 85.4095 18.9267 84.9341 19.1492C84.4587 19.3717 83.9336 19.4671 83.4103 19.4262C81.8332 19.4262 80.4296 18.6376 80.4296 16.753ZM86.1072 16.0985V15.3099H85.1609C83.7179 15.3099 82.8741 15.6253 82.8741 16.5795C82.8741 17.234 83.2763 17.6677 84.1831 17.6677C85.295 17.6992 86.1387 17.092 86.1387 16.0985H86.1072Z" fill="#8C9498"/>
<path d="M90.2942 10.2315H92.7782V11.6036C93.0491 11.1161 93.4477 10.7117 93.9312 10.4338C94.4147 10.1559 94.9648 10.0151 95.5224 10.0265C96.0545 9.98393 96.5862 10.1145 97.0381 10.3987C97.49 10.6829 97.8379 11.1056 98.03 11.6036C98.3612 11.109 98.8113 10.7054 99.339 10.4298C99.8666 10.1543 100.455 10.0156 101.05 10.0265C102.714 10.0265 103.999 11.0753 103.999 13.4567V19.2053H101.531V13.7643C101.531 12.613 101.019 12.1004 100.12 12.1004C99.8806 12.09 99.642 12.1313 99.4203 12.2215C99.1986 12.3118 98.9989 12.4487 98.835 12.6232C98.6711 12.7976 98.5467 13.0053 98.4704 13.2322C98.394 13.4591 98.3676 13.6997 98.3928 13.9378V19.2369H95.9167V13.7643C95.9167 12.613 95.3883 12.1004 94.513 12.1004C94.2733 12.0888 94.0338 12.1293 93.8111 12.219C93.5885 12.3087 93.3878 12.4455 93.223 12.62C93.0582 12.7946 92.9331 13.0027 92.8563 13.2302C92.7795 13.4577 92.7529 13.699 92.7782 13.9378V19.2369H90.2942V10.2315Z" fill="#8C9498"/>
<path d="M105.703 10.2315H108.195V11.6431C108.492 11.1494 108.911 10.741 109.413 10.4577C109.915 10.1744 110.481 10.0258 111.057 10.0265C113.257 10.0265 115 11.6588 115 14.6238V14.7658C115 17.7307 113.32 19.3946 111.057 19.3946C110.482 19.4182 109.91 19.2837 109.406 19.0057C108.901 18.7277 108.482 18.3167 108.195 17.8175V22.2965H105.703V10.2315ZM112.445 14.6475C112.445 12.8259 111.554 11.9348 110.3 11.9348C109.046 11.9348 108.108 12.8417 108.108 14.6475V14.7815C108.108 16.5794 108.968 17.4547 110.324 17.4547C111.68 17.4547 112.445 16.54 112.445 14.8131V14.6475Z" fill="#8C9498"/>
<path fill-rule="evenodd" clip-rule="evenodd" d="M15.3024 2.68899C8.30511 2.68899 4.65596 8.61579 2.6128 14.4087C2.36582 15.1089 1.59792 15.4764 0.897655 15.2294C0.396794 15.0527 0.0661906 14.6096 0.00889364 14.1153C-0.0139175 13.9185 0.00659065 13.7136 0.0769207 13.5142C2.15004 7.63643 6.38649 0 15.3024 0C19.9627 0 23.2984 3.08309 25.4557 6.78704C27.6187 10.5007 28.772 15.0991 29.0319 18.8118C29.0505 19.0787 28.9892 19.3451 28.8556 19.5769C27.6063 21.7456 25.5277 23.159 23.1585 24.0246C20.7951 24.8881 18.0574 25.2409 15.3132 25.2418C12.9817 25.2782 10.6697 24.8116 8.5348 23.8737C6.39648 22.9344 4.48616 21.5445 2.9344 19.799C2.60428 19.4277 2.50586 18.9046 2.67846 18.4387L2.67947 18.4359L2.6814 18.4308L2.68798 18.4132L2.71178 18.3504C2.73231 18.2967 2.76206 18.2197 2.8004 18.1226C2.87702 17.9287 2.98824 17.6541 3.12885 17.3255C3.40883 16.6712 3.81107 15.7895 4.29426 14.8992C4.77109 14.0206 5.35744 13.0761 6.01683 12.332C6.61794 11.6536 7.55229 10.8272 8.74821 10.8191L8.75732 10.819C9.60239 10.819 10.2966 11.2059 10.7962 11.5779C11.2999 11.9528 11.7573 12.4293 12.1239 12.8172C12.1659 12.8617 12.2068 12.905 12.2466 12.9472C12.5879 13.3092 12.849 13.586 13.097 13.7932C13.1249 13.8165 13.1505 13.8371 13.1738 13.8552C13.2545 13.7728 13.3508 13.6647 13.4615 13.5274C13.8556 13.0388 14.2982 12.3507 14.7265 11.6139C15.1492 10.8869 15.5339 10.1546 15.8144 9.6006C15.9541 9.32457 16.0669 9.095 16.1443 8.9353C16.183 8.85549 16.2128 8.79326 16.2327 8.75154L16.2549 8.70474L16.2602 8.69359L16.2613 8.6912C16.5765 8.01897 17.3771 7.72911 18.0494 8.04425C18.7218 8.35941 19.0113 9.15994 18.6962 9.83228L18.6933 9.83846L18.6863 9.85328L18.6604 9.90776C18.6381 9.95475 18.6055 10.0226 18.5639 10.1084C18.4808 10.2799 18.3611 10.5235 18.2134 10.8152C17.919 11.3968 17.5087 12.1785 17.0512 12.9655C16.5993 13.7428 16.0764 14.5686 15.5545 15.2156C15.2957 15.5365 15.0023 15.8574 14.685 16.1098C14.4046 16.3328 13.9099 16.6623 13.2758 16.6623C12.4373 16.6623 11.7766 16.1941 11.3727 15.8566C10.9922 15.5386 10.612 15.1344 10.2926 14.7948C10.2505 14.75 10.2094 14.7063 10.1695 14.6641C9.79083 14.2634 9.48136 13.9513 9.19055 13.7349C8.93568 13.5451 8.80556 13.5139 8.76818 13.5089C8.76818 13.5089 8.7655 13.51 8.76315 13.5108C8.72204 13.5253 8.47507 13.6123 8.02939 14.1153C7.56729 14.6368 7.09451 15.3769 6.6576 16.1819C6.22704 16.9752 5.86093 17.776 5.60099 18.3834C5.5675 18.4617 5.53587 18.5365 5.50618 18.6075C6.68948 19.7865 8.08258 20.7381 9.61627 21.4118C11.4002 22.1955 13.3323 22.5847 15.2805 22.553L15.3024 22.5528C17.8458 22.5528 20.2533 22.2232 22.2357 21.4989C24.0595 20.8326 25.4507 19.8614 26.3155 18.5722C26.0224 15.2681 24.9699 11.2958 23.1321 8.1404C21.2087 4.83799 18.5986 2.68899 15.3024 2.68899ZM12.9528 14.0462C12.9528 14.0462 12.9587 14.0418 12.97 14.036C12.9584 14.0439 12.9528 14.0462 12.9528 14.0462Z" fill="#8C9498"/>
</svg>
